@startuml CustomerUserModel

skinparam classAttributeIconSize 0

package "jakarta.validation.constraints" {
    interface NotNull {
    }
    interface NotBlank {
    }
    interface Pattern {
    }
    interface Email {
    }
    interface Past {
    }
    interface Size {
        }
}

package java {
    package util {
        interface List<T>
    }

    package time {
        class LocalDate
    }
}

package "org.hibernate.validator.constraints" {
    class UniqueElements {
    }
}


package com.gentle.bank.customer {

package entity  {
        package enums {
        enum GenderType
        enum MaritalStatusType
        enum ContactOptionsType
        }

    }
    package dto #DDDDDD {
        class CustomerDTO << entity >> {
            readonly lastName : String
            readonly firstName : String
            readonly email: String
            readonly isElite: Boolean
            readonly birthdate: LocalDate
            readonly gender: GenderType
            readonly maritalStatus: MaritalStatusType
            readonly contactOptions: List<ContactOptionsType>
            readonly address: AddressDTO
            readonly username: String
        }

        class PasswordDTO {
            readonly password: String
        }

        class AddressDTO {
            readonly street: String
            readonly houseNumber: String
            readonly zipCode: String
            readonly state: String
            readonly city: String
            readonly country: String
        }

        class CustomerCreateDTO {
            readonly customerDTO: CustomerDTO
            readonly passwordDTO: PasswordDTO
        }


        CustomerCreateDTO --> CustomerDTO
        CustomerCreateDTO --> PasswordDTO

        CustomerDTO ..> GenderType
        CustomerDTO ..> MaritalStatusType
        CustomerDTO ..> ContactOptionsType
        CustomerDTO *--> "1"AddressDTO
        CustomerDTO ..> LocalDate
        CustomerDTO .right.> List

        ' Validierungsabhängigkeiten
        CustomerDTO .left.> NotNull
        CustomerDTO .left.> Pattern
        CustomerDTO .left.> Size
        CustomerDTO .left.> Email
        CustomerDTO .left.> Past
        CustomerDTO .up.> UniqueElements

        AddressDTO ..> NotNull
        AddressDTO ..> NotBlank
        AddressDTO ..> Pattern


        ContactOptionsType .right[hidden].> URL
    }
}

hide empty members

footer (c) Caleb Gyamfi

@enduml
